<?xml version="1.0" encoding="UTF-8"?>
<!DOCTYPE svg PUBLIC "-//W3C//DTD SVG 1.1//EN" "http://www.w3.org/Graphics/SVG/1.1/DTD/svg11.dtd">
<!-- Creator: CorelDRAW X6 -->
<svg xmlns="http://www.w3.org/2000/svg" xml:space="preserve" width="58.2501mm" height="49.3591mm" version="1.1" style="shape-rendering:geometricPrecision; text-rendering:geometricPrecision; image-rendering:optimizeQuality; fill-rule:evenodd; clip-rule:evenodd"
viewBox="0 0 468 397"
 xmlns:xlink="http://www.w3.org/1999/xlink">
 <defs>
  <style type="text/css">
   <![CDATA[
    .fil0 {fill:#00A0E3}
    .fil1 {fill:url(#id0)}
   ]]>
  </style>
  <linearGradient id="id0" gradientUnits="userSpaceOnUse" x1="329.245" y1="356.134" x2="108.975" y2="36.7396">
   <stop offset="0" style="stop-color:#0289C3"/>
   <stop offset="0.301961" style="stop-color:#02809E"/>
   <stop offset="1" style="stop-color:#017678"/>
  </linearGradient>
 </defs>
 <g id="Layer_x0020_1">
  <metadata id="CorelCorpID_0Corel-Layer"/>
  <path class="fil0" d="M275 231l74 2c0,0 38,1 65,-83l-172 0c0,0 -43,2 -55,38l-39 108 22 92c0,0 18,25 32,-6 12,-33 37,-152 73,-151z"/>
  <path class="fil1" d="M124 295c0,0 -79,-65 -23,-147 58,-85 210,-60 306,-61 0,0 47,-10 61,-86l-280 2c0,0 -147,14 -183,165 -36,151 109,220 109,220l15 6 -6 -98z"/>
 </g>
</svg>
